<?xml version="1.0" encoding="UTF-8"?>
<svg id="Layer_2" data-name="Layer 2" xmlns="http://www.w3.org/2000/svg" width="482.54" height="430.43" viewBox="0 0 482.54 430.43">
  <g id="Layer_14" data-name="Layer 14">
    <g>
      <path d="M245.77,207.02l173.18,100.12.1-.15c6.8-11.8,63.49-93.28,63.49-93.28-4.3-13.15-56.68-94.85-63.49-106.6l-.05-.15-173.23,100.07Z" fill="#c5ecac" stroke-width="0"/>
      <path d="M245.77,407.06c14,0,129.53-3.81,129.53-3.81,9.1-10.2,36.74-84.26,43.64-96.11l.1-.15-173.28-99.97-.15,200.03h.15Z" fill="#aef7ff" stroke-width="0"/>
      <path d="M245.77,6.99v200.03L72.54,107.01l.05-.1c6.9-11.85,27.05-95.19,36.15-105.4,0,0,123.03,5.48,137.03,5.48Z" fill="#fcbc5d" stroke-width="0"/>
      <path d="M245.77,6.99c14,0,128.78-6.99,128.78-6.99,9.1,10.2,37.55,95.05,44.45,106.96l.05.15-173.28,99.92V6.99Z" fill="#ffdc5e" stroke-width="0"/>
      <path d="M114.78,430.43s116.89-23.38,130.84-23.38h.15v-200.03s-173.28,99.92-173.28,99.92l.05.15c6.9,11.9,33.14,113.14,42.24,123.34Z" fill="#d4bbfc" stroke-width="0"/>
      <path d="M0,214.46c4.3,13.1,65.69,80.73,72.49,92.48l.05.15,173.23-100.07L72.59,106.91l-.05.1C65.74,118.81,0,214.46,0,214.46Z" fill="#faab99" stroke-width="0"/>
    </g>
  </g>
</svg>