<?xml version="1.0" encoding="UTF-8"?>
<svg id="Layer_2" data-name="Layer 2" xmlns="http://www.w3.org/2000/svg" width="43.34" height="42.06" viewBox="0 0 43.34 42.06">
  <g id="Layer_12" data-name="Layer 12">
    <path d="M35.99,12.77h0c-.57-1-1.24-1.91-1.99-2.76l1.86-3.22c.34-.6.14-1.35-.45-1.69l-6.8-3.93c-.59-.34-1.35-.14-1.69.45l-1.86,3.22c-1.09-.23-2.22-.35-3.38-.35" fill="none" stroke="#ffdc5e" stroke-miterlimit="10" stroke-width="2"/>
    <path d="M35.99,29.29c.56-.98,1.03-2.01,1.38-3.1h3.72c.69,0,1.24-.55,1.24-1.24v-7.85c0-.69-.55-1.24-1.24-1.24h-3.72c-.36-1.09-.82-2.12-1.38-3.09" fill="none" stroke="#c5ecac" stroke-miterlimit="10" stroke-width="2"/>
    <path d="M21.67,37.57c1.16,0,2.29-.12,3.38-.35l1.86,3.22c.34.6,1.1.8,1.69.45l6.8-3.93c.59-.34.79-1.1.45-1.69l-1.86-3.22c.75-.84,1.42-1.76,1.99-2.74h0" fill="none" stroke="#aef7ff" stroke-miterlimit="10" stroke-width="2"/>
    <path d="M7.35,29.29h0c.57,1,1.24,1.91,1.99,2.76l-1.86,3.22c-.34.6-.14,1.35.45,1.69l6.8,3.93c.59.34,1.35.14,1.7-.45l1.86-3.22c1.09.23,2.22.35,3.37.35h.01" fill="none" stroke="#d4bbfc" stroke-miterlimit="10" stroke-width="2"/>
    <path d="M7.35,12.75h0c-.56.98-1.03,2.02-1.39,3.11h-3.72c-.69,0-1.24.55-1.24,1.24v7.85c0,.69.55,1.24,1.24,1.24h3.72c.36,1.08.82,2.12,1.38,3.09" fill="none" stroke="#faab99" stroke-miterlimit="10" stroke-width="2"/>
    <path d="M21.67,4.49c-1.16,0-2.29.12-3.38.35l-1.86-3.22c-.34-.6-1.1-.8-1.69-.45l-6.8,3.93c-.59.34-.79,1.1-.45,1.69l1.86,3.22c-.75.84-1.42,1.76-1.99,2.74" fill="none" stroke="#fcbc5d" stroke-miterlimit="10" stroke-width="2"/>
  </g>
</svg>