<?xml version="1.0" encoding="UTF-8"?>
<svg id="Layer_2" data-name="Layer 2" xmlns="http://www.w3.org/2000/svg" width="100" height="96.91" viewBox="0 0 100 96.91">
  <g id="Layer_12" data-name="Layer 12">
    <g>
      <path d="M60,48.45c0,1.81-.48,3.51-1.33,4.98,0,0-.01.02-.02.03l25.98,15.01.02-.03c1.36-2.36,2.49-4.87,3.35-7.49h9c1.66,0,3-1.34,3-3v-19c0-1.66-1.34-3-3-3h-9c-.86-2.63-1.99-5.13-3.35-7.48v-.03s-26,15-26,15c0,.01.02.02.02.03.85,1.47,1.33,3.17,1.33,4.98Z" fill="#c5ecac" stroke-width="0"/>
      <path d="M50,88.45c2.8,0,5.54-.29,8.18-.84l4.49,7.79c.83,1.44,2.67,1.93,4.1,1.1l16.46-9.5c1.43-.83,1.92-2.66,1.1-4.1l-4.51-7.8c1.82-2.04,3.43-4.26,4.81-6.63l.02-.03-25.98-15.01s-.01.02-.02.03c-1.73,2.98-4.95,4.99-8.64,4.99h-.03s-.01,30-.01,30h.03Z" fill="#aef7ff" stroke-width="0"/>
      <path d="M16.77,9.9L33.23.4c1.43-.83,3.27-.34,4.1,1.1l4.49,7.79c2.64-.55,5.38-.84,8.18-.84v30c-3.7,0-6.92,2.01-8.65,4.99,0,0,0,.01,0,.02l-25.98-15.01v-.02c1.39-2.37,3-4.59,4.82-6.63l-4.51-7.8c-.82-1.44-.33-3.27,1.1-4.1Z" fill="#fcbc5d" stroke-width="0"/>
      <path d="M49.99,38.45V8.45c2.81,0,5.55.29,8.19.84l4.49-7.79c.83-1.44,2.67-1.93,4.1-1.1l16.46,9.5c1.43.83,1.92,2.66,1.1,4.1l-4.51,7.8c1.82,2.04,3.44,4.26,4.82,6.64v.03s-25.97,15-25.97,15c0-.01-.01-.02-.02-.03-1.73-2.98-4.96-4.99-8.65-4.99h-.01Z" fill="#ffdc5e" stroke-width="0"/>
      <path d="M20.18,75.1l-4.51,7.8c-.82,1.44-.33,3.27,1.1,4.1l16.46,9.5c1.43.83,3.27.34,4.1-1.1l4.49-7.79c2.63.55,5.36.84,8.15.84h.03s0-30,0-30h-.01s-.01,0-.02,0c-3.69-.01-6.91-2.01-8.63-4.99,0-.01-.02-.02-.02-.03l-25.98,15v.03c1.39,2.38,3.01,4.6,4.83,6.64Z" fill="#d4bbfc" stroke-width="0"/>
      <path d="M3,60.95h9c.86,2.62,1.99,5.13,3.35,7.48v.03s26-15,26-15c0-.01-.02-.02-.02-.03-.85-1.47-1.33-3.17-1.33-4.98s.49-3.52,1.34-4.99c0-.01,0-.02,0-.02l-25.98-15.01v.02c-1.37,2.36-2.5,4.86-3.37,7.5H3c-1.66,0-3,1.34-3,3v19c0,1.66,1.34,3,3,3Z" fill="#faab99" stroke-width="0"/>
      <path d="M40,48.45c0-1.82.49-3.52,1.34-4.99,0-.01,0-.02,0-.02,1.73-2.98,4.95-4.99,8.64-4.99h.01c3.69,0,6.92,2.01,8.65,4.99,0,.01.02.02.02.03.85,1.47,1.33,3.17,1.33,4.98s-.48,3.51-1.33,4.98c0,0-.01.02-.02.03-1.73,2.98-4.95,4.99-8.64,4.99h-.01s-.01,0-.02,0c-3.69-.01-6.91-2.01-8.63-4.99,0-.01-.02-.02-.02-.03-.85-1.47-1.33-3.17-1.33-4.98Z" fill="#fff" stroke-width="0"/>
    </g>
    <path d="M24.73,52.53v-8.16c0-.55.45-1,1-1h12.85c.68,0,1.16-.67.95-1.32l-3.92-11.77c-.28-.83.56-1.58,1.36-1.23l41.58,18.58c.79.35.79,1.48,0,1.83l-41.59,18.39c-.79.35-1.63-.41-1.35-1.23l3.93-11.78c.22-.65-.27-1.32-.95-1.32h-12.85c-.55,0-1-.45-1-1Z" fill="#fff" stroke-width="0"/>
  </g>
</svg>